<svg id="Layer_1" data-name="Layer 1" xmlns="http://www.w3.org/2000/svg" viewBox="0 0 2183.41 621.65"><defs><style>.cls-1{fill:#eeb939;}.cls-2,.cls-3{fill:#162745;}.cls-3{font-size:301.63px;font-family:Montserrat-Bold, Montserrat;font-weight:700;}.cls-4{font-family:Montserrat-Regular, Montserrat;font-weight:400;}.cls-5{letter-spacing:-0.01em;}</style></defs><path class="cls-1" d="M309.46,429.23C252.44,528,148.27,596.09,27.72,602.77l269.9-467.5a1.15,1.15,0,0,1,2.08,1,348.88,348.88,0,0,0,10.95,265.31A30,30,0,0,1,309.46,429.23Z" transform="translate(-27.72 -12.69)"/><path class="cls-2" d="M324.76,429.23c57,98.76,161.18,166.86,281.73,173.54l-269.9-467.5a1.15,1.15,0,0,0-2.08,1,347,347,0,0,1,21.05,119.41,346.37,346.37,0,0,1-32,145.9A30,30,0,0,0,324.76,429.23Z" transform="translate(-27.72 -12.69)"/><circle class="cls-2" cx="289.39" cy="69.07" r="37.5"/><text class="cls-3" transform="translate(606.77 256.24)">FUTURE<tspan class="cls-4"><tspan class="cls-5" x="0" y="290">C</tspan><tspan x="217.48" y="290">ONNECT</tspan></tspan></text></svg>