<?xml version="1.0" encoding="utf-8"?>
<!-- Generator: Adobe Illustrator 24.0.0, SVG Export Plug-In . SVG Version: 6.00 Build 0)  -->
<svg version="1.1" id="Слой_1" xmlns="http://www.w3.org/2000/svg" xmlns:xlink="http://www.w3.org/1999/xlink" x="0px" y="0px"
	 viewBox="0 0 730 167" style="enable-background:new 0 0 730 167;" xml:space="preserve">
<style type="text/css">
	.st0{fill:#283E80;}
</style>
<g>
	<circle class="st0" cx="140" cy="18.8" r="13.6"/>
	<g>
		<path class="st0" d="M61,76.3H54v50h6.9c5.9,0,10.1-0.7,12.6-2c2.5-1.3,4.5-3.6,5.9-6.9c1.4-3.3,2.1-8.6,2.1-15.9
			c0-9.7-1.6-16.3-4.7-19.9C73.6,78.1,68.4,76.3,61,76.3z"/>
		<polygon class="st0" points="204.8,112.2 224.9,112.2 214.8,79.3 		"/>
		<path class="st0" d="M6,42.1v118.6h273.9V42.1H6z M106.6,123.8c-2.2,5.4-5.3,9.9-9.3,13.5c-4,3.6-8.2,6.1-12.7,7.3
			c-6.2,1.7-11.8,2.5-16.9,2.5h-42V55.6h42c8.3,0,15,1.1,20.1,3.4c5.1,2.2,9.3,5.5,12.6,9.7c3.3,4.2,5.7,9.1,7.2,14.7
			c1.5,5.6,2.2,11.5,2.2,17.7C109.9,110.8,108.8,118.4,106.6,123.8z M154.2,147.1h-28.3V55.6h28.3V147.1z M235.3,147.1l-4.6-15.1
			h-32.1l-4.5,15.1h-28.9l34.4-91.5h30.8l34.4,91.5H235.3z"/>
	</g>
</g>
<g>
	<path class="st0" d="M295.8,93.6V60h11.9c11.9,0,17.9,5.5,17.9,16.4c0,5.2-1.6,9.4-4.9,12.5s-7.6,4.7-13,4.7H295.8z M303.4,66.2
		v21.3h3.8c3.3,0,5.9-1,7.7-3s2.8-4.6,2.8-8c0-3.2-0.9-5.7-2.8-7.6s-4.4-2.8-7.8-2.8H303.4z"/>
	<path class="st0" d="M353.7,93.6h-7.4V80.3c0-3.7-1.3-5.6-4-5.6c-1.3,0-2.3,0.5-3.2,1.5s-1.2,2.2-1.2,3.8v13.7h-7.4v-24h7.4v3.8
		h0.1c1.8-2.9,4.3-4.4,7.7-4.4c5.3,0,8,3.3,8,9.9V93.6z"/>
	<path class="st0" d="M363.3,65.8c-1.3,0-2.3-0.4-3.1-1.1S359,63.1,359,62c0-1.1,0.4-2,1.2-2.7s1.8-1.1,3.1-1.1
		c1.3,0,2.3,0.4,3.1,1.1s1.2,1.6,1.2,2.7c0,1.1-0.4,2-1.2,2.8S364.6,65.8,363.3,65.8z M367,93.6h-7.4v-24h7.4V93.6z"/>
	<path class="st0" d="M380.7,90.9L380.7,90.9l-0.1,13.8h-7.4v-35h7.4v3.6h0.1c1.8-2.8,4.4-4.2,7.7-4.2c3.1,0,5.5,1.1,7.2,3.2
		s2.5,5,2.5,8.7c0,4-1,7.2-3,9.6s-4.6,3.6-7.9,3.6C384.4,94.2,382.2,93.1,380.7,90.9z M380.5,81v1.9c0,1.7,0.4,3,1.3,4.1
		s2,1.6,3.4,1.6c1.7,0,3-0.7,3.9-2s1.4-3.2,1.4-5.5c0-4.2-1.6-6.3-4.9-6.3c-1.5,0-2.8,0.6-3.7,1.7S380.5,79.1,380.5,81z"/>
	<path class="st0" d="M418.6,76.3c-0.9-0.5-1.9-0.7-3.1-0.7c-1.6,0-2.9,0.6-3.8,1.8s-1.4,2.8-1.4,4.8v11.5H403v-24h7.4v4.5h0.1
		c1.2-3.3,3.3-4.9,6.3-4.9c0.8,0,1.4,0.1,1.8,0.3V76.3z"/>
	<path class="st0" d="M433.3,94.2c-4,0-7.1-1.1-9.4-3.4s-3.4-5.3-3.4-9.1c0-4,1.2-7.1,3.6-9.3s5.6-3.4,9.6-3.4c4,0,7.1,1.1,9.4,3.4
		s3.4,5.2,3.4,8.9c0,4-1.2,7.1-3.5,9.4S437.4,94.2,433.3,94.2z M433.5,74.7c-1.8,0-3.1,0.6-4.1,1.8s-1.5,2.9-1.5,5.1
		c0,4.6,1.9,6.9,5.6,6.9c3.5,0,5.3-2.4,5.3-7.1C438.9,77,437.1,74.7,433.5,74.7z"/>
	<path class="st0" d="M458.7,90.9L458.7,90.9l-0.1,13.8h-7.4v-35h7.4v3.6h0.1c1.8-2.8,4.4-4.2,7.7-4.2c3.1,0,5.5,1.1,7.2,3.2
		s2.5,5,2.5,8.7c0,4-1,7.2-3,9.6s-4.6,3.6-7.9,3.6C462.4,94.2,460.2,93.1,458.7,90.9z M458.5,81v1.9c0,1.7,0.4,3,1.3,4.1
		s2,1.6,3.4,1.6c1.7,0,3-0.7,3.9-2s1.4-3.2,1.4-5.5c0-4.2-1.6-6.3-4.9-6.3c-1.5,0-2.8,0.6-3.7,1.7S458.5,79.1,458.5,81z"/>
	<path class="st0" d="M502.5,83.7h-15.7c0.3,3.5,2.4,5.2,6.6,5.2c2.6,0,5-0.6,7-1.9v5.3c-2.2,1.2-5.1,1.8-8.6,1.8
		c-3.9,0-6.9-1.1-9-3.2s-3.2-5.1-3.2-9c0-4,1.2-7.1,3.5-9.5s5.2-3.5,8.5-3.5c3.5,0,6.2,1,8.1,3.1s2.9,4.9,2.9,8.5V83.7z M495.7,79.2
		c0-3.4-1.4-5.2-4.2-5.2c-1.2,0-2.2,0.5-3.1,1.5s-1.4,2.2-1.6,3.7H495.7z"/>
	<path class="st0" d="M521.5,93.4c-1.1,0.6-2.7,0.9-4.9,0.9c-5.2,0-7.8-2.7-7.8-8.1v-11h-3.9v-5.5h3.9v-5.2l7.4-2.1v7.3h5.4v5.5
		h-5.4v9.7c0,2.5,1,3.8,3,3.8c0.8,0,1.6-0.2,2.4-0.7V93.4z"/>
	<path class="st0" d="M541.3,76.3c-0.9-0.5-1.9-0.7-3.1-0.7c-1.6,0-2.9,0.6-3.8,1.8s-1.4,2.8-1.4,4.8v11.5h-7.4v-24h7.4v4.5h0.1
		c1.2-3.3,3.3-4.9,6.3-4.9c0.8,0,1.4,0.1,1.8,0.3V76.3z"/>
	<path class="st0" d="M556,94.2c-4,0-7.1-1.1-9.4-3.4s-3.4-5.3-3.4-9.1c0-4,1.2-7.1,3.6-9.3s5.6-3.4,9.6-3.4c4,0,7.1,1.1,9.4,3.4
		s3.4,5.2,3.4,8.9c0,4-1.2,7.1-3.5,9.4S560,94.2,556,94.2z M556.2,74.7c-1.8,0-3.1,0.6-4.1,1.8s-1.5,2.9-1.5,5.1
		c0,4.6,1.9,6.9,5.6,6.9c3.5,0,5.3-2.4,5.3-7.1C561.5,77,559.7,74.7,556.2,74.7z"/>
	<path class="st0" d="M596.7,69.6l-8.9,24h-8.4l-8.5-24h7.9l4.2,14.8c0.5,1.7,0.7,3.1,0.8,4.3h0.1c0.1-1.1,0.4-2.5,0.9-4.1l4.3-14.9
		H596.7z"/>
	<path class="st0" d="M598.3,93v-6c1.2,0.7,2.4,1.3,3.6,1.6s2.4,0.5,3.4,0.5c1.3,0,2.3-0.2,3.1-0.5s1.1-0.9,1.1-1.6
		c0-0.5-0.2-0.9-0.5-1.2s-0.8-0.6-1.3-0.8s-1.1-0.4-1.8-0.6s-1.3-0.4-1.9-0.6c-1-0.4-1.8-0.7-2.5-1.2s-1.3-0.9-1.8-1.4
		s-0.9-1.2-1.1-1.9s-0.4-1.6-0.4-2.6c0-1.3,0.3-2.5,0.9-3.5s1.4-1.8,2.3-2.4s2.1-1.1,3.4-1.4s2.6-0.4,3.9-0.4c1.1,0,2.1,0.1,3.2,0.2
		s2.2,0.4,3.2,0.7v5.7c-0.9-0.5-1.9-1-3-1.2s-2.1-0.4-3.2-0.4c-0.5,0-0.9,0-1.4,0.1s-0.8,0.2-1.1,0.4s-0.6,0.4-0.8,0.6
		s-0.3,0.6-0.3,0.9c0,0.4,0.1,0.8,0.4,1.1s0.6,0.6,1.1,0.8s1,0.4,1.5,0.6s1.1,0.4,1.7,0.6c1,0.3,1.9,0.7,2.7,1.1s1.5,0.9,2.1,1.4
		s1,1.2,1.3,1.9s0.5,1.6,0.5,2.6c0,1.4-0.3,2.6-0.9,3.6s-1.4,1.8-2.5,2.5s-2.2,1.1-3.5,1.4s-2.7,0.4-4.2,0.4
		C603,94.2,600.6,93.8,598.3,93z"/>
	<path class="st0" d="M645.1,93.6h-8.9l-7.7-11.9h-0.1v11.9H621V58.1h7.4v22.6h0.1l7.1-11.1h8.8l-8.6,11.3L645.1,93.6z"/>
	<path class="st0" d="M303.4,151.2h-7.6v-33.6h7.6V151.2z"/>
	<path class="st0" d="M333.5,151.2h-7.4v-13.3c0-3.7-1.3-5.6-4-5.6c-1.3,0-2.3,0.5-3.2,1.5s-1.2,2.2-1.2,3.8v13.7h-7.4v-24h7.4v3.8
		h0.1c1.8-2.9,4.3-4.4,7.7-4.4c5.3,0,8,3.3,8,9.9V151.2z"/>
	<path class="st0" d="M362.2,127.2l-8.9,24h-8.4l-8.5-24h7.9l4.2,14.8c0.5,1.7,0.7,3.1,0.8,4.3h0.1c0.1-1.1,0.4-2.5,0.9-4.1
		l4.3-14.9H362.2z"/>
	<path class="st0" d="M386.5,141.3h-15.7c0.3,3.5,2.4,5.2,6.6,5.2c2.6,0,5-0.6,7-1.9v5.3c-2.2,1.2-5.1,1.8-8.6,1.8
		c-3.9,0-6.9-1.1-9-3.2s-3.2-5.1-3.2-9c0-4,1.2-7.1,3.5-9.5s5.2-3.5,8.5-3.5c3.5,0,6.2,1,8.1,3.1s2.9,4.9,2.9,8.5V141.3z
		 M379.6,136.8c0-3.4-1.4-5.2-4.2-5.2c-1.2,0-2.2,0.5-3.1,1.5s-1.4,2.2-1.6,3.7H379.6z"/>
	<path class="st0" d="M389.3,150.6v-6c1.2,0.7,2.4,1.3,3.6,1.6s2.4,0.5,3.4,0.5c1.3,0,2.3-0.2,3.1-0.5s1.1-0.9,1.1-1.6
		c0-0.5-0.2-0.9-0.5-1.2s-0.8-0.6-1.3-0.8s-1.1-0.4-1.8-0.6s-1.3-0.4-1.9-0.6c-1-0.4-1.8-0.7-2.5-1.2s-1.3-0.9-1.8-1.4
		s-0.9-1.2-1.1-1.9s-0.4-1.6-0.4-2.6c0-1.3,0.3-2.5,0.9-3.5s1.4-1.8,2.3-2.4s2.1-1.1,3.4-1.4s2.6-0.4,3.9-0.4c1.1,0,2.1,0.1,3.2,0.2
		s2.2,0.4,3.2,0.7v5.7c-0.9-0.5-1.9-1-3-1.2s-2.1-0.4-3.2-0.4c-0.5,0-0.9,0-1.4,0.1s-0.8,0.2-1.1,0.4s-0.6,0.4-0.8,0.6
		s-0.3,0.6-0.3,0.9c0,0.4,0.1,0.8,0.4,1.1s0.6,0.6,1.1,0.8s1,0.4,1.5,0.6s1.1,0.4,1.7,0.6c1,0.3,1.9,0.7,2.7,1.1s1.5,0.9,2.1,1.4
		s1,1.2,1.3,1.9s0.5,1.6,0.5,2.6c0,1.4-0.3,2.6-0.9,3.6s-1.4,1.8-2.5,2.5s-2.2,1.1-3.5,1.4s-2.7,0.4-4.2,0.4
		C394,151.8,391.6,151.4,389.3,150.6z"/>
	<path class="st0" d="M426.5,151c-1.1,0.6-2.7,0.9-4.9,0.9c-5.2,0-7.8-2.7-7.8-8.1v-11h-3.9v-5.5h3.9v-5.2l7.4-2.1v7.3h5.4v5.5h-5.4
		v9.7c0,2.5,1,3.8,3,3.8c0.8,0,1.6-0.2,2.4-0.7V151z"/>
	<path class="st0" d="M468.8,151.2h-7.4v-13.7c0-3.5-1.3-5.2-3.8-5.2c-1.2,0-2.2,0.5-3,1.6s-1.1,2.4-1.1,3.9v13.4H446v-13.8
		c0-3.4-1.3-5.1-3.8-5.1c-1.3,0-2.3,0.5-3,1.5s-1.1,2.4-1.1,4.1v13.3h-7.4v-24h7.4v3.8h0.1c0.8-1.3,1.8-2.3,3.2-3.1s2.9-1.2,4.5-1.2
		c3.4,0,5.7,1.5,7,4.5c1.8-3,4.5-4.5,8.1-4.5c5.2,0,7.8,3.2,7.8,9.7V151.2z"/>
	<path class="st0" d="M496.2,141.3h-15.7c0.3,3.5,2.4,5.2,6.6,5.2c2.6,0,5-0.6,7-1.9v5.3c-2.2,1.2-5.1,1.8-8.6,1.8
		c-3.9,0-6.9-1.1-9-3.2s-3.2-5.1-3.2-9c0-4,1.2-7.1,3.5-9.5s5.2-3.5,8.5-3.5c3.5,0,6.2,1,8.1,3.1s2.9,4.9,2.9,8.5V141.3z
		 M489.3,136.8c0-3.4-1.4-5.2-4.2-5.2c-1.2,0-2.2,0.5-3.1,1.5s-1.4,2.2-1.6,3.7H489.3z"/>
	<path class="st0" d="M523.8,151.2h-7.4v-13.3c0-3.7-1.3-5.6-4-5.6c-1.3,0-2.3,0.5-3.2,1.5s-1.2,2.2-1.2,3.8v13.7h-7.4v-24h7.4v3.8
		h0.1c1.8-2.9,4.3-4.4,7.7-4.4c5.3,0,8,3.3,8,9.9V151.2z"/>
	<path class="st0" d="M544.2,151c-1.1,0.6-2.7,0.9-4.9,0.9c-5.2,0-7.8-2.7-7.8-8.1v-11h-3.9v-5.5h3.9v-5.2l7.4-2.1v7.3h5.4v5.5h-5.4
		v9.7c0,2.5,1,3.8,3,3.8c0.8,0,1.6-0.2,2.4-0.7V151z"/>
	<path class="st0" d="M591.9,151.2h-8.3l-2.4-7.5h-12l-2.4,7.5h-8.2l12.2-33.6h9L591.9,151.2z M579.5,138l-3.6-11.3
		c-0.3-0.8-0.5-1.9-0.6-3h-0.2c-0.1,1-0.3,2-0.6,2.9l-3.7,11.4H579.5z"/>
	<path class="st0" d="M618.9,148.5c0,4.5-1.3,7.9-3.9,10.3s-6.3,3.7-11.2,3.7c-3.2,0-5.8-0.5-7.7-1.4v-6.2c2.5,1.4,5,2.2,7.5,2.2
		c2.5,0,4.4-0.7,5.8-2s2.1-3.1,2.1-5.4v-1.9h-0.1c-1.7,2.7-4.2,4-7.5,4c-3.1,0-5.5-1.1-7.3-3.2s-2.7-5-2.7-8.7c0-4.1,1-7.3,3-9.7
		s4.6-3.6,7.9-3.6c2.9,0,5.1,1.1,6.6,3.4h0.1v-2.8h7.4V148.5z M611.5,139.7v-1.9c0-1.5-0.4-2.8-1.3-3.9s-2.1-1.6-3.5-1.6
		c-1.6,0-2.9,0.6-3.9,1.9s-1.4,3.1-1.4,5.4c0,2,0.4,3.6,1.3,4.7s2.1,1.7,3.7,1.7c1.5,0,2.8-0.6,3.7-1.8S611.5,141.6,611.5,139.7z"/>
	<path class="st0" d="M646.6,141.3H631c0.3,3.5,2.4,5.2,6.6,5.2c2.6,0,5-0.6,7-1.9v5.3c-2.2,1.2-5.1,1.8-8.6,1.8
		c-3.9,0-6.9-1.1-9-3.2s-3.2-5.1-3.2-9c0-4,1.2-7.1,3.5-9.5s5.2-3.5,8.5-3.5c3.5,0,6.2,1,8.1,3.1s2.9,4.9,2.9,8.5V141.3z
		 M639.7,136.8c0-3.4-1.4-5.2-4.2-5.2c-1.2,0-2.2,0.5-3.1,1.5s-1.4,2.2-1.6,3.7H639.7z"/>
	<path class="st0" d="M674.2,151.2h-7.4v-13.3c0-3.7-1.3-5.6-4-5.6c-1.3,0-2.3,0.5-3.2,1.5s-1.2,2.2-1.2,3.8v13.7H651v-24h7.4v3.8
		h0.1c1.8-2.9,4.3-4.4,7.7-4.4c5.3,0,8,3.3,8,9.9V151.2z"/>
	<path class="st0" d="M698.2,150.4c-1.7,1-4.1,1.5-7.2,1.5c-3.7,0-6.7-1.1-9-3.4s-3.4-5.1-3.4-8.6c0-4.1,1.2-7.3,3.7-9.6
		s5.7-3.5,9.8-3.5c2.8,0,4.9,0.4,6.1,1.1v6.3c-1.5-1.2-3.3-1.7-5.2-1.7c-2.1,0-3.8,0.6-5.1,1.9s-1.9,3-1.9,5.1c0,2.1,0.6,3.8,1.8,5
		s2.8,1.8,4.9,1.8c1.8,0,3.6-0.6,5.4-1.7V150.4z"/>
	<path class="st0" d="M725.9,127.2l-9.8,25.9c-2.3,6.2-5.9,9.4-10.6,9.4c-1.8,0-3.3-0.2-4.4-0.6V156c1,0.6,2.1,0.9,3.2,0.9
		c1.9,0,3.2-0.9,4-2.7l1.3-3l-9.8-24h8.2l4.5,14.6c0.3,0.9,0.5,2,0.7,3.2h0.1c0.1-0.9,0.4-2,0.8-3.2l4.5-14.6H725.9z"/>
</g>
</svg>
